<svg version="1.1" id="Layer_1" xmlns="http://www.w3.org/2000/svg" x="0" y="0" width="50" height="30" viewBox="0 0 350 150" xml:space="preserve"><style>.st0{fill:#026ac2}</style><circle class="st0" cx="187" cy="107.9" r="5.8"/><circle class="st0" cx="152.8" cy="107.9" r="5.8"/><path class="st0" d="M198.3 48.3h-51.9l-2.1-10.7c-.3-2.7-2.4-4.9-4.9-4.9h-10.7c-2.7 0-4.9 2.4-4.9 5.8 0 3.1 2.1 5.8 4.9 5.8h5.5l6.7 33.6 3.1 15v.6c.6 2.4 2.1 4.3 4.3 4.3h41.2c7 0 7.6-11.9 7.6-11.9h-43.7l-1.2-7h42.5c2.1 0 3.7-1.5 4.3-4l4.6-18.9v-1.5c.5-3.7-1.9-6.2-5.3-6.2zm-8.2 19h-39.7l-1.5-7.3h42.8l-1.6 7.3z"/></svg>